<svg xmlns="http://www.w3.org/2000/svg" xmlns:xlink="http://www.w3.org/1999/xlink" width="100" zoomAndPan="magnify" viewBox="0 0 75 74.999997" height="100" preserveAspectRatio="xMidYMid meet" version="1.0"><defs><g/><clipPath id="7601974211"><path d="M 33.503906 33 L 44.003906 33 L 44.003906 39.351562 L 33.503906 39.351562 Z M 33.503906 33 " clip-rule="nonzero"/></clipPath><clipPath id="4ed116f04c"><path d="M 34 31.101562 L 44 31.101562 L 44 36 L 34 36 Z M 34 31.101562 " clip-rule="nonzero"/></clipPath></defs><g fill="#222222" fill-opacity="1"><g transform="translate(12.118358, 39.749996)"><g><path d="M 6.695312 -2.296875 L 6.53125 -2.296875 C 6.386719 -0.96875 5.125 -0.242188 4.265625 -0.242188 L 2.398438 -0.242188 L 2.398438 -3.660156 L 2.9375 -3.660156 C 3.890625 -3.660156 4.464844 -3.15625 4.464844 -2.15625 L 4.628906 -2.15625 L 4.628906 -5.375 L 4.464844 -5.375 C 4.464844 -4.441406 3.78125 -3.925781 2.9375 -3.925781 L 2.398438 -3.925781 L 2.398438 -7.148438 L 4.429688 -7.148438 C 5.289062 -7.148438 6.015625 -6.664062 6.113281 -5.542969 L 6.277344 -5.542969 L 6.277344 -7.386719 L 0.394531 -7.386719 L 0.394531 -7.148438 L 1.277344 -7.148438 L 1.277344 -0.242188 L 0.394531 -0.242188 L 0.394531 0 L 6.695312 0 Z M 6.695312 -2.296875 "/></g></g></g><g clip-path="url(#7601974211)"><path fill="#222222" d="M 38.941406 37.210938 L 40.039062 37.210938 L 40.039062 38.304688 L 38.941406 38.304688 Z M 38.941406 35.914062 L 38.941406 37.011719 L 40.039062 37.011719 C 40.039062 36.40625 39.546875 35.914062 38.941406 35.914062 Z M 43.960938 36.945312 L 44.175781 36.511719 L 38.84375 33.847656 L 33.511719 36.511719 L 33.726562 36.945312 L 35.597656 36.007812 L 35.597656 38.402344 C 35.597656 38.695312 35.574219 38.914062 35.527344 39.058594 C 35.476562 39.203125 35.382812 39.300781 35.246094 39.351562 C 35.109375 39.398438 34.90625 39.429688 34.640625 39.449219 L 34.640625 39.691406 C 34.816406 39.671875 35.050781 39.664062 35.34375 39.660156 C 35.636719 39.65625 35.949219 39.652344 36.289062 39.652344 C 36.589844 39.652344 36.890625 39.65625 37.195312 39.660156 C 37.496094 39.664062 37.75 39.671875 37.953125 39.691406 L 37.953125 39.449219 C 37.675781 39.429688 37.472656 39.398438 37.332031 39.351562 C 37.195312 39.300781 37.105469 39.203125 37.058594 39.058594 C 37.015625 38.914062 36.992188 38.695312 36.992188 38.402344 L 36.992188 35.3125 L 38.84375 34.386719 L 40.695312 35.3125 L 40.695312 38.402344 C 40.695312 38.695312 40.671875 38.914062 40.625 39.058594 C 40.582031 39.203125 40.492188 39.300781 40.355469 39.351562 C 40.214844 39.398438 40.011719 39.429688 39.734375 39.449219 L 39.734375 39.691406 C 39.9375 39.671875 40.191406 39.664062 40.492188 39.660156 C 40.796875 39.65625 41.097656 39.652344 41.398438 39.652344 C 41.738281 39.652344 42.050781 39.65625 42.34375 39.660156 C 42.632812 39.664062 42.871094 39.671875 43.046875 39.691406 L 43.046875 39.449219 C 42.78125 39.429688 42.578125 39.398438 42.441406 39.351562 C 42.304688 39.300781 42.210938 39.203125 42.160156 39.058594 C 42.113281 38.914062 42.089844 38.695312 42.089844 38.402344 L 42.089844 36.007812 Z M 37.648438 38.304688 L 38.746094 38.304688 L 38.746094 37.210938 L 37.648438 37.210938 Z M 37.648438 37.011719 L 38.746094 37.011719 L 38.746094 35.914062 C 38.140625 35.914062 37.648438 36.40625 37.648438 37.011719 Z M 37.648438 37.011719 " fill-opacity="1" fill-rule="nonzero"/></g><g clip-path="url(#4ed116f04c)"><path fill="#020940" d="M 40.347656 31.433594 C 40.207031 31.382812 40.003906 31.351562 39.734375 31.34375 L 39.734375 31.101562 C 39.9375 31.109375 40.191406 31.117188 40.492188 31.125 C 40.796875 31.132812 41.097656 31.136719 41.398438 31.136719 C 41.738281 31.136719 42.050781 31.132812 42.34375 31.125 C 42.632812 31.117188 42.871094 31.109375 43.046875 31.101562 L 43.046875 31.34375 C 42.78125 31.351562 42.578125 31.382812 42.441406 31.433594 C 42.304688 31.488281 42.210938 31.582031 42.160156 31.726562 C 42.113281 31.867188 42.089844 32.085938 42.089844 32.386719 L 42.089844 35.128906 L 40.691406 34.433594 L 40.691406 32.386719 C 40.691406 32.085938 40.671875 31.867188 40.625 31.726562 C 40.582031 31.582031 40.488281 31.484375 40.347656 31.433594 Z M 35.527344 31.726562 C 35.574219 31.867188 35.597656 32.085938 35.597656 32.386719 L 35.597656 35.128906 L 36.996094 34.433594 L 36.996094 32.386719 C 36.996094 32.085938 37.015625 31.867188 37.0625 31.726562 C 37.105469 31.582031 37.199219 31.484375 37.339844 31.433594 C 37.480469 31.382812 37.6875 31.351562 37.953125 31.34375 L 37.953125 31.101562 C 37.75 31.109375 37.496094 31.117188 37.195312 31.125 C 36.890625 31.132812 36.589844 31.136719 36.289062 31.136719 C 35.949219 31.136719 35.636719 31.132812 35.34375 31.125 C 35.050781 31.117188 34.816406 31.109375 34.640625 31.101562 L 34.640625 31.34375 C 34.90625 31.351562 35.109375 31.382812 35.246094 31.433594 C 35.382812 31.484375 35.476562 31.582031 35.527344 31.726562 Z M 35.527344 31.726562 " fill-opacity="1" fill-rule="nonzero"/></g><g fill="#020940" fill-opacity="1"><g transform="translate(19.456899, 40.258352)"><g><path d="M 0.265625 -0.234375 C 0.421875 -0.234375 0.53125 -0.269531 0.59375 -0.34375 C 0.664062 -0.425781 0.707031 -0.523438 0.71875 -0.640625 C 0.738281 -0.765625 0.75 -0.957031 0.75 -1.21875 L 0.75 -5 C 0.75 -5.195312 0.753906 -5.367188 0.765625 -5.515625 L 0.203125 -5.484375 L 0.203125 -5.828125 C 0.523438 -5.828125 0.753906 -5.84375 0.890625 -5.875 C 1.023438 -5.914062 1.128906 -5.972656 1.203125 -6.046875 L 1.4375 -6.046875 L 1.4375 -0.84375 C 1.4375 -0.632812 1.425781 -0.453125 1.40625 -0.296875 L 1.90625 -0.328125 L 1.90625 0 L 0.265625 0 Z M 0.265625 -0.234375 "/></g></g></g><g fill="#020940" fill-opacity="1"><g transform="translate(21.632921, 40.258352)"><g><path d="M 1.140625 -4.875 C 1.023438 -4.875 0.925781 -4.921875 0.84375 -5.015625 C 0.757812 -5.109375 0.71875 -5.21875 0.71875 -5.34375 C 0.71875 -5.46875 0.757812 -5.578125 0.84375 -5.671875 C 0.9375 -5.773438 1.039062 -5.828125 1.15625 -5.828125 C 1.28125 -5.828125 1.378906 -5.78125 1.453125 -5.6875 C 1.535156 -5.59375 1.578125 -5.476562 1.578125 -5.34375 C 1.578125 -5.21875 1.53125 -5.109375 1.4375 -5.015625 C 1.351562 -4.921875 1.253906 -4.875 1.140625 -4.875 Z M 0.359375 -0.234375 C 0.503906 -0.234375 0.609375 -0.269531 0.671875 -0.34375 C 0.742188 -0.425781 0.785156 -0.523438 0.796875 -0.640625 C 0.816406 -0.765625 0.828125 -0.957031 0.828125 -1.21875 L 0.828125 -3.046875 C 0.828125 -3.191406 0.835938 -3.363281 0.859375 -3.5625 L 0.28125 -3.53125 L 0.28125 -3.859375 C 0.601562 -3.859375 0.832031 -3.875 0.96875 -3.90625 C 1.101562 -3.945312 1.207031 -4.003906 1.28125 -4.078125 L 1.515625 -4.078125 L 1.515625 -0.84375 C 1.515625 -0.601562 1.503906 -0.421875 1.484375 -0.296875 L 1.984375 -0.328125 L 1.984375 0 L 0.359375 0 Z M 0.359375 -0.234375 "/></g></g></g><g fill="#020940" fill-opacity="1"><g transform="translate(23.880944, 40.258352)"><g><path d="M 1.859375 0.125 C 1.128906 0.125 0.765625 -0.363281 0.765625 -1.34375 L 0.78125 -3.65625 L 0.171875 -3.65625 L 0.171875 -4 C 0.421875 -4.007812 0.632812 -4.125 0.8125 -4.34375 C 1 -4.570312 1.132812 -4.832031 1.21875 -5.125 L 1.484375 -5.125 L 1.484375 -4 L 2.828125 -4 L 2.828125 -3.6875 L 1.484375 -3.671875 C 1.484375 -2.859375 1.476562 -2.289062 1.46875 -1.96875 C 1.46875 -1.65625 1.46875 -1.484375 1.46875 -1.453125 C 1.46875 -1.066406 1.515625 -0.78125 1.609375 -0.59375 C 1.703125 -0.414062 1.859375 -0.328125 2.078125 -0.328125 C 2.210938 -0.328125 2.347656 -0.367188 2.484375 -0.453125 C 2.628906 -0.535156 2.75 -0.65625 2.84375 -0.8125 L 3.0625 -0.625 C 2.851562 -0.320312 2.644531 -0.117188 2.4375 -0.015625 C 2.238281 0.078125 2.046875 0.125 1.859375 0.125 Z M 1.859375 0.125 "/></g></g></g><g fill="#020940" fill-opacity="1"><g transform="translate(26.976972, 40.258352)"><g><path d="M 2.28125 0.125 C 1.914062 0.125 1.582031 0.0390625 1.28125 -0.125 C 0.988281 -0.300781 0.757812 -0.550781 0.59375 -0.875 C 0.425781 -1.195312 0.34375 -1.566406 0.34375 -1.984375 C 0.34375 -2.359375 0.425781 -2.707031 0.59375 -3.03125 C 0.757812 -3.363281 0.992188 -3.628906 1.296875 -3.828125 C 1.609375 -4.023438 1.960938 -4.125 2.359375 -4.125 C 2.660156 -4.125 2.929688 -4.054688 3.171875 -3.921875 C 3.421875 -3.796875 3.613281 -3.597656 3.75 -3.328125 C 3.894531 -3.066406 3.96875 -2.742188 3.96875 -2.359375 L 1.15625 -2.3125 C 1.15625 -1.675781 1.257812 -1.175781 1.46875 -0.8125 C 1.6875 -0.457031 2.023438 -0.28125 2.484375 -0.28125 C 2.722656 -0.28125 2.972656 -0.34375 3.234375 -0.46875 C 3.492188 -0.59375 3.691406 -0.75 3.828125 -0.9375 L 4.03125 -0.78125 C 3.820312 -0.46875 3.554688 -0.238281 3.234375 -0.09375 C 2.910156 0.0507812 2.59375 0.125 2.28125 0.125 Z M 3.21875 -2.640625 C 3.21875 -2.960938 3.144531 -3.238281 3 -3.46875 C 2.863281 -3.695312 2.648438 -3.8125 2.359375 -3.8125 C 1.703125 -3.8125 1.3125 -3.421875 1.1875 -2.640625 Z M 3.21875 -2.640625 "/></g></g></g><g fill="#020940" fill-opacity="1"><g transform="translate(44.937137, 40.258352)"><g><path d="M 3.945312 -1.480469 C 3.945312 -2.496094 3.152344 -3.191406 2.152344 -3.191406 C 1.105469 -3.191406 0.398438 -2.414062 0.398438 -1.574219 C 0.398438 -0.59375 1.152344 0.121094 2.167969 0.121094 C 3.121094 0.121094 3.945312 -0.511719 3.945312 -1.480469 Z M 3.207031 -1.480469 C 3.207031 -0.3125 2.679688 -0.0546875 2.167969 -0.0546875 C 1.558594 -0.0546875 1.136719 -0.328125 1.136719 -1.609375 C 1.136719 -2.800781 1.6875 -3.015625 2.160156 -3.015625 C 2.703125 -3.015625 3.207031 -2.761719 3.207031 -1.480469 Z M 3.207031 -1.480469 "/></g></g></g><g fill="#020940" fill-opacity="1"><g transform="translate(49.361182, 40.258352)"><g><path d="M 6.191406 -0.175781 L 5.710938 -0.175781 L 5.710938 -2 C 5.710938 -2.816406 5.207031 -3.144531 4.601562 -3.144531 C 4.199219 -3.144531 3.777344 -2.886719 3.527344 -2.480469 L 3.511719 -2.480469 C 3.367188 -2.910156 2.886719 -3.144531 2.441406 -3.144531 C 1.953125 -3.144531 1.617188 -2.878906 1.425781 -2.617188 L 1.40625 -2.625 L 1.40625 -3.070312 L 0.257812 -3.070312 L 0.257812 -2.894531 L 0.734375 -2.894531 L 0.734375 -0.175781 L 0.257812 -0.175781 L 0.257812 0 L 1.886719 0 L 1.886719 -0.175781 L 1.40625 -0.175781 L 1.40625 -1.960938 C 1.40625 -2.550781 1.871094 -2.9375 2.304688 -2.9375 C 2.65625 -2.9375 2.878906 -2.753906 2.878906 -2.335938 L 2.878906 -0.175781 L 2.398438 -0.175781 L 2.398438 0 L 4.03125 0 L 4.03125 -0.175781 L 3.550781 -0.175781 L 3.550781 -1.921875 C 3.550781 -2.449219 4.054688 -2.945312 4.535156 -2.945312 C 4.832031 -2.945312 5.039062 -2.734375 5.039062 -2.335938 L 5.039062 -0.175781 L 4.558594 -0.175781 L 4.558594 0 L 6.191406 0 Z M 6.191406 -0.175781 "/></g></g></g><g fill="#020940" fill-opacity="1"><g transform="translate(55.80925, 40.258352)"><g><path d="M 3.398438 -1.625 C 3.398438 -2.359375 2.945312 -3.175781 1.945312 -3.175781 C 1.113281 -3.175781 0.441406 -2.449219 0.441406 -1.511719 C 0.441406 -0.71875 1.078125 0.113281 2.046875 0.113281 C 2.632812 0.113281 3.113281 -0.078125 3.351562 -0.703125 L 3.191406 -0.777344 C 2.984375 -0.207031 2.449219 -0.0625 2.105469 -0.0625 C 1.542969 -0.0625 1.152344 -0.550781 1.152344 -1.390625 L 1.152344 -1.625 Z M 1.160156 -1.816406 C 1.207031 -2.574219 1.449219 -3 1.976562 -3 C 2.375 -3 2.710938 -2.808594 2.710938 -2.152344 L 2.710938 -1.816406 Z M 1.160156 -1.816406 "/></g></g></g><g fill="#020940" fill-opacity="1"><g transform="translate(59.60929, 40.258352)"><g><path d="M 2.945312 -0.871094 C 2.945312 -1.296875 2.695312 -1.65625 2.054688 -1.832031 L 1.441406 -2 C 1.03125 -2.113281 0.894531 -2.273438 0.894531 -2.550781 C 0.894531 -2.863281 1.214844 -2.992188 1.542969 -2.992188 C 1.976562 -2.992188 2.464844 -2.671875 2.550781 -2.039062 L 2.671875 -2.039062 L 2.671875 -3.089844 L 2.566406 -3.089844 C 2.488281 -2.992188 2.28125 -2.984375 2.121094 -3.039062 C 1.960938 -3.097656 1.742188 -3.167969 1.503906 -3.167969 C 0.921875 -3.167969 0.496094 -2.761719 0.496094 -2.230469 C 0.496094 -1.777344 0.871094 -1.449219 1.359375 -1.328125 L 1.929688 -1.183594 C 2.320312 -1.089844 2.535156 -0.863281 2.535156 -0.585938 C 2.535156 -0.257812 2.265625 -0.078125 1.855469 -0.078125 C 1.3125 -0.078125 0.734375 -0.464844 0.542969 -1.183594 L 0.425781 -1.183594 L 0.425781 0 L 0.527344 0 C 0.632812 -0.144531 0.878906 -0.191406 1.128906 -0.078125 C 1.328125 0.015625 1.535156 0.0976562 1.863281 0.0976562 C 2.511719 0.0976562 2.945312 -0.351562 2.945312 -0.871094 Z M 2.945312 -0.871094 "/></g></g></g></svg>